<svg xmlns="http://www.w3.org/2000/svg" version="1.1" xmlns:xlink="http://www.w3.org/1999/xlink" xmlns:svgjs="http://svgjs.dev/svgjs" viewBox="0 0 1920 1080"><rect width="1920" height="1080" fill="#70c3ff"></rect><g transform="matrix(1.15,0,0,1.15,-138.30043601989746,-81)"><path d="M0,-1080C-4.512095351861937,-997.1033919469423,-34.15285472956902,-727.0601037949091,-27.072572111171624,-582.6203516816538C-19.992289492774223,-438.1805995683985,50.4339869465015,-361.70139520987254,42.4816957103844,-213.3614873204686C34.5294044742673,-65.02157943106462,-65.26986016738175,133.61853429436505,-74.78631952787423,307.41909565476993C-84.3027788883667,481.2196570151748,-35.08953226853309,691.7985768930159,-14.617060452570428,829.4418808419606C5.855411363392232,967.0851847909053,54.30463768932475,975.376412914001,48.04851136790174,1133.2789193484382C41.79238504647873,1291.1814257828755,-44.145733153124866,1605.7367393399904,-52.153818381108486,1776.856919448584C-60.16190360909211,1947.9770995571776,-8.69230306351808,2096.1428199080974,0,2160L 1920 2160 L 1920 -1080 Z" fill="url(&quot;#SvgjsLinearGradient1037&quot;)"></path><path d="M384,-1080C378.8321942849011,-1003.4624897931722,361.129035055323,-743.3147690496403,352.9931657094067,-620.7749387590329C344.8572963634904,-498.2351084684255,325.7498530864466,-458.09288552347715,335.18478392450214,-344.76101825635544C344.6197147625577,-231.42915098923373,396.6019106868403,-86.39544318774017,409.60275073774,59.2162648436973C422.6035907886397,204.82797287513478,428.72000583193727,395.6312397115556,413.1898242299002,528.9092299322693C397.6596426278631,662.1872201529831,334.3946364247066,723.0954251921903,316.42166112551735,858.8842061679799C298.4486858263281,994.6729871437694,279.5313616658834,1181.5383533514532,305.3519724347645,1343.6419157870066C331.17258320364556,1505.74547822256,458.23732114459796,1695.4459000791344,471.34532573880387,1831.5055807813C484.4533303330098,1967.5652614834657,398.55755428980063,2105.2509301302166,384,2160L 1920 2160 L 1920 -1080 Z" fill="url(&quot;#SvgjsLinearGradient1038&quot;)"></path><path d="M768,-1080C780.1198193226207,-1013.2805306919997,826.6375990880834,-844.2952957790769,840.7189159357246,-679.6831841519984C854.8002327833657,-515.0710725249198,858.495483165983,-248.06702200341192,852.4879010858466,-92.32733023752891C846.4803190057102,63.4123615283541,831.1500404777597,103.41275215481824,804.6734234549058,254.75496644329965C778.1968064320519,406.09718073178107,701.4204868993633,660.6610905211523,693.6281989487231,815.7259554933596C685.835910998083,970.7908204655669,752.4906363544036,1037.988087860841,757.9196957510649,1185.1441562765435C763.3487551477261,1332.300224692246,724.522504620535,1536.1863920336652,726.2025553286908,1698.6623659875747C727.8826060368466,1861.1383399414842,761.0337592214485,2083.1103943312623,768,2160L 1920 2160 L 1920 -1080 Z" fill="url(&quot;#SvgjsLinearGradient1039&quot;)"></path><path d="M1152,-1080C1168.988086101319,-998.3555376450126,1256.1641872634257,-714.4802912426371,1253.9285166079142,-590.133225870076C1251.6928459524026,-465.7861604975149,1146.7857460569496,-445.2816875257363,1138.5859760669305,-333.9176077646334C1130.3862060769113,-222.55352800353046,1214.6108113140529,-62.37512374042532,1204.729896667799,78.05125269654138C1194.8489820215452,218.4776291335081,1083.6375687403358,353.4871008298461,1079.300488189408,508.64065085716675C1074.9634076384802,663.7942008844874,1172.8090754517461,861.1841376979526,1178.7074133622318,1008.9725528604652C1184.6057512727175,1156.7609680229777,1105.7166730275633,1267.126640918245,1114.6905156523214,1395.371141832242C1123.6643582770796,1523.6156427462392,1226.3322217195005,1651.001415316488,1232.5504691107803,1778.4395583444477C1238.7687165020602,1905.8777013724075,1165.4250781851301,2096.406593057408,1152,2160L 1920 2160 L 1920 -1080 Z" fill="url(&quot;#SvgjsLinearGradient1040&quot;)"></path><path d="M1536,-1080C1551.8200765260826,-957.4962407689588,1620.9747652173821,-555.2894795615824,1630.9204591564953,-344.9774446137534C1640.8661530956085,-134.66540966592433,1614.158148409852,-3.1650181737153105,1595.6741636346796,181.87220968697443C1577.1901788595073,366.9094375476642,1514.9473449547247,528.9178858739501,1520.0165505054615,765.2459225503849C1525.0857560561983,1001.5739592268196,1623.4254886900105,1367.3814168373135,1626.0893969391002,1599.8404297455827C1628.7533051881899,1832.2994426538519,1551.01489948985,2066.640071624264,1536,2160L 1920 2160 L 1920 -1080 Z" fill="url(&quot;#SvgjsLinearGradient1041&quot;)"></path></g><defs><linearGradient x1="0.1" y1="0" x2="0" y2="1" id="SvgjsLinearGradient1037"><stop stop-color="#70c3ff" offset="0"></stop><stop stop-color="#70dbff" offset="0"></stop></linearGradient><linearGradient x1="0.1" y1="0" x2="0" y2="1" id="SvgjsLinearGradient1038"><stop stop-color="#8fd0ff" offset="0"></stop><stop stop-color="#8fe3ff" offset="0.2"></stop></linearGradient><linearGradient x1="0.1" y1="0" x2="0" y2="1" id="SvgjsLinearGradient1039"><stop stop-color="#aeddff" offset="0"></stop><stop stop-color="#aeeaff" offset="0.4"></stop></linearGradient><linearGradient x1="0.1" y1="0" x2="0" y2="1" id="SvgjsLinearGradient1040"><stop stop-color="#ceeaff" offset="0"></stop><stop stop-color="#cef2ff" offset="0.6"></stop></linearGradient><linearGradient x1="0.1" y1="0" x2="0" y2="1" id="SvgjsLinearGradient1041"><stop stop-color="#edf7ff" offset="0"></stop><stop stop-color="#edfaff" offset="0.8"></stop></linearGradient></defs></svg>