<svg xmlns="http://www.w3.org/2000/svg" version="1.1" xmlns:xlink="http://www.w3.org/1999/xlink" xmlns:svgjs="http://svgjs.dev/svgjs" viewBox="0 0 1920 1080"><rect width="1920" height="1080" fill="#70c3ff"></rect><g transform="matrix(7.04171909509728e-17,1.15,-1.15,7.04171909509728e-17,1546.6953659057617,-524.5496707916259)"><path d="M0,-1080C14.161618636413758,-1009.565258093892,87.12859196590354,-825.5618006653474,84.96971181848255,-657.3915485633522C82.81083167106156,-489.22129646135704,-8.223297098433736,-235.87533679196162,-12.953280884525938,-70.97848738802915C-17.68326467061814,93.91836201590331,54.96437102830549,189.50273106811142,56.58980910192935,331.9895478602426C58.2152471755532,474.47636465237383,-6.732591956273609,624.1858458033472,-3.200652442782811,783.9424133647581C0.3312870707079867,943.6989809261689,88.41298371663557,1124.76333106718,77.78144618287413,1290.5289532287077C67.1499086491127,1456.2945753902354,-54.026303281539015,1633.624305205376,-66.98987764535137,1778.5361463339248C-79.95345200916373,1923.4479874624735,-11.164979607558562,2096.422691055654,0,2160L 1920 2160 L 1920 -1080 Z" fill="url(&quot;#SvgjsLinearGradient1305&quot;)"></path><path d="M384,-1080C379.92200773193923,-995.3348279337268,350.3518022118789,-759.4995709935911,359.5320463916355,-572.0089676023613C368.7122905713921,-384.5183642111315,445.4808373263963,-152.09936634543166,439.0814650785394,44.94362034737867C432.6820928306825,241.986607040189,324.8442697482499,426.4587390939032,321.13581290449406,610.2489525545005C317.4273560607382,794.0391660150979,407.6469187026756,977.534932907219,416.83072401600407,1147.6849011109623C426.01452932933256,1317.8348693147057,381.71043212046555,1462.4295786287873,376.2386447844649,1631.1487617769603C370.76685744846424,1799.8679449251333,382.70644079741083,2071.8581269628266,384,2160L 1920 2160 L 1920 -1080 Z" fill="url(&quot;#SvgjsLinearGradient1306&quot;)"></path><path d="M768,-1080C754.9070183124268,-1006.7288485647246,684.4748691844532,-782.3696351259315,689.4421098745604,-640.3730913883476C694.4093505646676,-498.37654765076365,793.6918722093421,-358.9962674373311,797.8034441406431,-228.0207375744966C801.9150160719441,-97.04520771166207,724.2571216674078,31.501243471906662,714.1115414623661,145.48008778865966C703.9659612573244,259.45893210541266,715.5321223713071,326.90372243488196,736.9299629103932,455.8523283260214C758.3278034494793,584.8009342171608,826.0215775896154,777.4335262825865,842.4985846968826,919.1717231354962C858.9755918041499,1060.909919988406,847.8442294666614,1167.242624983152,835.7920055539967,1306.2815094434798C823.7397816413319,1445.3203939038076,781.4839088132269,1611.1186148047104,770.1852412208941,1753.405029897464C758.8865736285613,1895.6914449902174,768.364206870149,2092.2341716495775,768,2160L 1920 2160 L 1920 -1080 Z" fill="url(&quot;#SvgjsLinearGradient1307&quot;)"></path><path d="M1152,-1080C1146.66352393965,-984.6755734749265,1134.1709545415536,-732.3482640342735,1119.9811436379002,-508.05344084955897C1105.791332734247,-283.75861766484445,1060.2124940596707,42.30520142898152,1066.8611345780798,265.768939108287C1073.509775096489,489.2326767875925,1155.930178621995,619.7629648999529,1159.8729867483555,832.7289852262738C1163.815794874716,1045.695005552595,1091.8301477943019,1322.353225270592,1090.5179833362427,1543.565061066213C1089.2058188781834,1764.776896861834,1141.752997222707,2057.2608435110355,1152,2160L 1920 2160 L 1920 -1080 Z" fill="url(&quot;#SvgjsLinearGradient1308&quot;)"></path><path d="M1536,-1080C1529.4289799457367,-989.2358551365054,1483.5696623491035,-697.1651027264396,1496.57387967442,-535.4151308190324C1509.5780969997363,-373.6651589116251,1617.9230918041692,-239.2891174726789,1614.025303951898,-109.5001685555562C1610.1275160996267,20.288780361566495,1485.080317333509,96.57655249316457,1473.187152560793,243.31856268370382C1461.2939877880772,390.06057287424306,1541.218272507755,597.0490787967099,1542.666315315602,770.9518925876793C1544.1143581234492,944.8547063786486,1471.3539937295643,1135.9620093967274,1481.8754094078747,1286.73544542952C1492.3968250861851,1437.5088814623127,1596.7740442867766,1530.0484163560225,1605.7948093854643,1675.5925087844357C1614.815574484152,1821.136601212849,1547.6324682309107,2079.2654181307394,1536,2160L 1920 2160 L 1920 -1080 Z" fill="url(&quot;#SvgjsLinearGradient1309&quot;)"></path></g><defs><linearGradient x1="0.1" y1="0" x2="0" y2="1" id="SvgjsLinearGradient1305"><stop stop-color="#70c3ff" offset="0"></stop><stop stop-color="#70dbff" offset="0"></stop></linearGradient><linearGradient x1="0.1" y1="0" x2="0" y2="1" id="SvgjsLinearGradient1306"><stop stop-color="#8fd0ff" offset="0"></stop><stop stop-color="#8fe3ff" offset="0.2"></stop></linearGradient><linearGradient x1="0.1" y1="0" x2="0" y2="1" id="SvgjsLinearGradient1307"><stop stop-color="#aeddff" offset="0"></stop><stop stop-color="#aeeaff" offset="0.4"></stop></linearGradient><linearGradient x1="0.1" y1="0" x2="0" y2="1" id="SvgjsLinearGradient1308"><stop stop-color="#ceeaff" offset="0"></stop><stop stop-color="#cef2ff" offset="0.6"></stop></linearGradient><linearGradient x1="0.1" y1="0" x2="0" y2="1" id="SvgjsLinearGradient1309"><stop stop-color="#edf7ff" offset="0"></stop><stop stop-color="#edfaff" offset="0.8"></stop></linearGradient></defs></svg>